<?xml version="1.0" encoding="iso-8859-1"?>
<!-- Generator: Adobe Illustrator 18.0.0, SVG Export Plug-In . SVG Version: 6.00 Build 0)  -->
<!DOCTYPE svg PUBLIC "-//W3C//DTD SVG 1.1//EN" "http://www.w3.org/Graphics/SVG/1.1/DTD/svg11.dtd">
<svg version="1.1" id="Capa_1" xmlns="http://www.w3.org/2000/svg" xmlns:xlink="http://www.w3.org/1999/xlink" x="0px" y="0px"
	 viewBox="0 0 442 442" style="enable-background:new 0 0 442 442;" xml:space="preserve">
<g>
	<path d="M442,147.668h-25.323l1.467-18.881c0.225-2.894-0.776-5.775-2.748-7.905c-1.971-2.13-4.766-3.352-7.668-3.352h-46.575
		c-2.902,0-5.697,1.222-7.668,3.352c-1.972,2.13-2.973,5.011-2.748,7.905l1.467,18.881h-11.05v-22.983l-54.487-47.548h-32.805
		l-54.488,47.548v22.983h-24.037v-14.706h11.649v-21.228h-81.504v8.114H76.504v11.592H27.82v16.228H0v210.17h234.7
		c11.5,4.534,24.019,7.026,37.11,7.026s25.61-2.492,37.11-7.026H442V147.668z M437,187.079h-16.444v-34.411H437V187.079z
		 M373.289,262.86c-0.016-3.066-0.169-6.1-0.452-9.097c1.494-2.542,4.175-4.108,7.165-4.108c4.585,0,8.314,3.73,8.314,8.315
		c0,4.584-3.729,8.314-8.314,8.314C377.309,266.284,374.851,265.008,373.289,262.86z M373.115,269.357
		c2.04,1.233,4.399,1.927,6.887,1.927c7.342,0,13.314-5.973,13.314-13.314s-5.973-13.315-13.314-13.315
		c-2.956,0-5.73,0.955-7.985,2.641c-1.625-10.164-4.765-19.826-9.18-28.752l-2.223-26.464h23.023
		c1.867,0.74,3.894,1.159,6.021,1.159s4.154-0.419,6.021-1.159h19.879v143.372h-72.372
		C360.441,318.36,371.609,295.135,373.115,269.357z M26.444,192.079H183l-2.224,26.479c-6.686,13.525-10.451,28.74-10.451,44.82
		c0,28.157,11.53,53.668,30.111,72.072H26.444V192.079z M21.444,335.451H5V192.079h16.444V335.451z M389.657,188.239
		c-6.292,0-11.41-5.118-11.41-11.41s5.118-11.41,11.41-11.41s11.41,5.119,11.41,11.41S395.949,188.239,389.657,188.239z
		 M420.556,192.079H437v143.372h-16.444V192.079z M357.155,124.278c1.043-1.127,2.463-1.748,3.998-1.748h46.575
		c1.535,0,2.955,0.621,3.998,1.748s1.552,2.591,1.434,4.122l-0.143,1.834h-57.153l-0.143-1.834
		C355.603,126.869,356.112,125.405,357.155,124.278z M356.252,135.234h56.376l-0.967,12.434h-54.442L356.252,135.234z
		 M255.737,82.136h29.055l21.069,18.385h-71.192L255.737,82.136z M228.938,105.522h82.652l24.564,21.436v7.96h-131.78v-7.96
		L228.938,105.522z M204.374,139.918h131.78v7.75h-131.78V139.918z M170.337,147.668h-32.216h-15.989v-14.706h48.205V147.668z
		 M110.483,116.735h71.504v11.228h-71.504V116.735z M81.504,124.848h23.979v8.114h11.649v14.706H81.504V131.44V124.848z
		 M32.82,136.44h43.685v11.228H32.82V136.44z M76.504,152.668h5h56.617h61.253h141.78h11.438h62.964v34.411h-13.105
		c2.257-2.812,3.616-6.373,3.616-10.25c0-9.049-7.361-16.41-16.41-16.41s-16.41,7.361-16.41,16.41c0,3.877,1.359,7.439,3.616,10.25
		h-16.67l-1.342-15.972c-0.722-8.593-8.043-15.325-16.667-15.325H201.428c-8.624,0-15.945,6.732-16.667,15.326l-1.341,15.971H26.444
		v-34.411h1.375H76.504z M356.951,208.211c-18.112-27.856-49.509-46.318-85.141-46.318c-35.637,0-67.038,18.467-85.149,46.33
		l3.082-36.696c0.506-6.025,5.639-10.745,11.685-10.745h140.756c6.046,0,11.179,4.719,11.685,10.744L356.951,208.211z
		 M21.444,152.668v34.411H5v-34.411H21.444z M5,340.451h16.444v12.387H5V340.451z M26.444,352.838v-12.387h179.418
		c5.54,4.747,11.595,8.908,18.069,12.387H26.444z M175.324,263.379c0-53.202,43.283-96.485,96.486-96.485
		c53.202,0,96.485,43.283,96.485,96.485s-43.283,96.485-96.485,96.485C218.607,359.864,175.324,316.581,175.324,263.379z
		 M337.757,340.451h77.799v12.387h-95.868C326.163,349.359,332.217,345.198,337.757,340.451z M420.556,352.838v-12.387H437v12.387
		H420.556z"/>
	<path d="M157.331,295.105c-4.316-2.736-7.125-6.979-7.708-11.64l-1.123-8.982c-0.694-5.553-5.437-9.74-11.033-9.74
		c-6.131,0-11.119,4.988-11.119,11.119v2.604c0,13.036,2.525,25.646,7.506,37.479c0.484,1.15,0.682,1.54,0.844,1.796
		c3.026,4.785,8.206,7.641,13.855,7.641c0.207,0,0.413-0.004,0.621-0.011c8.518-0.315,15.448-7.233,15.777-15.75
		C165.176,303.79,162.256,298.228,157.331,295.105z M148.988,320.374c-4.107,0.143-7.885-1.859-10.024-5.238
		c-0.012-0.022-0.127-0.242-0.501-1.131c-4.721-11.216-7.115-23.173-7.115-35.54v-2.604c0-3.374,2.745-6.119,6.119-6.119
		c3.08,0,5.69,2.304,6.072,5.36l1.123,8.982c0.768,6.148,4.41,11.704,9.991,15.243c3.427,2.173,5.458,6.043,5.302,10.1
		C159.729,315.247,154.81,320.158,148.988,320.374z"/>
	<path d="M271.81,207.676c-30.715,0-55.704,24.988-55.704,55.703s24.989,55.703,55.704,55.703s55.703-24.988,55.703-55.703
		S302.525,207.676,271.81,207.676z M271.81,314.082c-27.958,0-50.704-22.745-50.704-50.703s22.746-50.703,50.704-50.703
		s50.703,22.745,50.703,50.703S299.768,314.082,271.81,314.082z"/>
	<path d="M271.81,174.216c-49.165,0-89.163,39.999-89.163,89.163s39.998,89.163,89.163,89.163s89.163-39.999,89.163-89.163
		S320.975,174.216,271.81,174.216z M271.81,347.542c-46.407,0-84.163-37.755-84.163-84.163s37.756-84.163,84.163-84.163
		s84.163,37.755,84.163,84.163S318.217,347.542,271.81,347.542z"/>
	<path d="M292.986,226.635c0.618-1.234,0.119-2.736-1.115-3.355c-6.262-3.138-13.011-4.729-20.061-4.729c-1.381,0-2.5,1.119-2.5,2.5
		s1.119,2.5,2.5,2.5c6.265,0,12.261,1.413,17.82,4.199c0.359,0.18,0.741,0.266,1.118,0.266
		C291.665,228.016,292.547,227.51,292.986,226.635z"/>
	<path d="M303.663,235.391c-1.088,0.85-1.282,2.42-0.433,3.509c5.5,7.05,8.407,15.515,8.407,24.479
		c0,14.098-7.569,27.282-19.755,34.407c-1.192,0.697-1.594,2.228-0.896,3.42c0.465,0.795,1.302,1.239,2.16,1.239
		c0.429,0,0.863-0.11,1.26-0.342c13.713-8.018,22.231-22.856,22.231-38.724c0-10.089-3.273-19.617-9.466-27.554
		C306.325,234.736,304.753,234.542,303.663,235.391z"/>
	<circle cx="148.167" cy="308.972" r="4.637"/>
</g>
<g>
</g>
<g>
</g>
<g>
</g>
<g>
</g>
<g>
</g>
<g>
</g>
<g>
</g>
<g>
</g>
<g>
</g>
<g>
</g>
<g>
</g>
<g>
</g>
<g>
</g>
<g>
</g>
<g>
</g>
</svg>
